<svg width="59" height="56" viewBox="0 0 59 56" fill="none" xmlns="http://www.w3.org/2000/svg">
<path d="M25.793 55.3068C19.1441 55.3021 12.769 52.7673 8.06756 48.2591C3.3661 43.7509 0.722683 37.6377 0.717773 31.2621C0.719199 18.0045 11.9629 7.21875 25.793 7.21875C26.3602 7.21875 26.9042 7.43481 27.3053 7.81941C27.7063 8.20401 27.9317 8.72563 27.9317 9.26953V29.2113H48.7295C49.2967 29.2113 49.8407 29.4274 50.2418 29.812C50.6429 30.1966 50.8682 30.7182 50.8682 31.2621C50.8682 44.5197 39.6231 55.3068 25.793 55.3068ZM23.6543 11.4201C13.1877 12.4496 4.99654 20.9535 4.99512 31.258C4.99889 36.5465 7.19117 41.6175 11.0906 45.3574C14.99 49.0973 20.2778 51.2006 25.793 51.2053C36.5391 51.2053 45.4075 43.3508 46.4811 33.3129H25.793C25.2258 33.3129 24.6818 33.0968 24.2807 32.7122C23.8796 32.3276 23.6543 31.806 23.6543 31.2621V11.4201Z" fill="white"/>
<path d="M55.8954 26.9924H32.3843C31.8171 26.9924 31.2731 26.7763 30.872 26.3917C30.4709 26.0071 30.2456 25.4855 30.2456 24.9416V2.39667C30.2456 1.85277 30.4709 1.33114 30.872 0.946546C31.2731 0.56195 31.8171 0.345886 32.3843 0.345886C46.528 0.345886 58.0341 11.3805 58.0341 24.9416C58.0341 25.4855 57.8088 26.0071 57.4077 26.3917C57.0066 26.7763 56.4626 26.9924 55.8954 26.9924ZM34.5229 22.8908H53.6512C53.1512 18.1897 50.9752 13.798 47.4905 10.4567C44.0057 7.11536 39.4256 5.02911 34.5229 4.54999V22.8908Z" fill="white"/>
</svg>
