<svg width="55" height="55" viewBox="0 0 55 55" fill="none" xmlns="http://www.w3.org/2000/svg">
<path d="M27.5 27.5C29.8796 27.5 32.2057 26.7944 34.1842 25.4724C36.1627 24.1504 37.7048 22.2713 38.6154 20.0729C39.526 17.8745 39.7643 15.4554 39.3001 13.1216C38.8358 10.7877 37.69 8.64398 36.0074 6.96138C34.3248 5.27878 32.181 4.13291 29.8472 3.66868C27.5133 3.20445 25.0943 3.44271 22.8958 4.35333C20.6974 5.26395 18.8184 6.80602 17.4964 8.78455C16.1744 10.7631 15.4688 13.0892 15.4688 15.4688C15.4688 18.6596 16.7363 21.7198 18.9926 23.9761C21.2489 26.2324 24.3091 27.5 27.5 27.5ZM27.5 6.87501C29.1997 6.87501 30.8612 7.37902 32.2744 8.32331C33.6877 9.26761 34.7892 10.6098 35.4396 12.1801C36.09 13.7504 36.2602 15.4783 35.9286 17.1453C35.597 18.8123 34.7786 20.3436 33.5767 21.5455C32.3748 22.7473 30.8436 23.5658 29.1766 23.8974C27.5095 24.229 25.7816 24.0588 24.2113 23.4083C22.641 22.7579 21.2989 21.6564 20.3546 20.2432C19.4103 18.83 18.9063 17.1684 18.9063 15.4688C18.9063 13.1896 19.8117 11.0037 21.4233 9.39206C23.0349 7.78042 25.2208 6.87501 27.5 6.87501Z" fill="white"/>
<path d="M29.2188 30.9375H25.7812C20.767 30.9375 15.9581 32.9294 12.4125 36.475C8.8669 40.0206 6.875 44.8295 6.875 49.8438C6.875 50.2996 7.05608 50.7368 7.37841 51.0591C7.70074 51.3814 8.13791 51.5625 8.59375 51.5625H46.4062C46.8621 51.5625 47.2993 51.3814 47.6216 51.0591C47.9439 50.7368 48.125 50.2996 48.125 49.8438C48.125 44.8295 46.1331 40.0206 42.5875 36.475C39.0419 32.9294 34.233 30.9375 29.2188 30.9375ZM10.4156 48.125C10.8383 44.3449 12.6388 40.8529 15.4734 38.3165C18.3079 35.78 21.9776 34.3768 25.7812 34.375H29.2188C33.0224 34.3768 36.6921 35.78 39.5266 38.3165C42.3612 40.8529 44.1617 44.3449 44.5844 48.125H10.4156Z" fill="white"/>
</svg>
