<svg width="56" height="54" viewBox="0 0 56 54" fill="none" xmlns="http://www.w3.org/2000/svg">
<path d="M9.33338 15.75C7.94891 15.75 6.59553 15.3541 5.44439 14.6124C4.29324 13.8707 3.39603 12.8165 2.86622 11.5831C2.33641 10.3497 2.19778 8.99252 2.46788 7.68314C2.73798 6.37377 3.40466 5.17104 4.38363 4.22703C5.3626 3.28303 6.60988 2.64015 7.96775 2.3797C9.32561 2.11925 10.7331 2.25292 12.0122 2.76382C13.2912 3.27471 14.3845 4.13987 15.1537 5.2499C15.9228 6.35994 16.3334 7.66498 16.3334 9C16.3334 10.7902 15.5959 12.5071 14.2831 13.773C12.9704 15.0388 11.1899 15.75 9.33338 15.75ZM9.33338 6.75C8.87189 6.75 8.42076 6.88196 8.03705 7.1292C7.65333 7.37643 7.35426 7.72783 7.17766 8.13897C7.00105 8.5501 6.95485 9.0025 7.04488 9.43896C7.13491 9.87541 7.35714 10.2763 7.68346 10.591C8.00978 10.9057 8.42554 11.12 8.87817 11.2068C9.33079 11.2936 9.79994 11.249 10.2263 11.0787C10.6527 10.9084 11.0171 10.62 11.2735 10.25C11.5299 9.88003 11.6667 9.44501 11.6667 9C11.6667 8.40327 11.4209 7.83097 10.9833 7.40901C10.5457 6.98706 9.95222 6.75 9.33338 6.75Z" fill="white"/>
<path d="M9.33338 32.25C7.94891 32.25 6.59553 31.8541 5.44439 31.1124C4.29324 30.3707 3.39603 29.3165 2.86622 28.0831C2.33641 26.8497 2.19778 25.4925 2.46788 24.1831C2.73798 22.8738 3.40466 21.671 4.38363 20.727C5.3626 19.783 6.60988 19.1402 7.96775 18.8797C9.32561 18.6193 10.7331 18.7529 12.0122 19.2638C13.2912 19.7747 14.3845 20.6399 15.1537 21.7499C15.9228 22.8599 16.3334 24.165 16.3334 25.5C16.3334 27.2902 15.5959 29.0071 14.2831 30.273C12.9704 31.5388 11.1899 32.25 9.33338 32.25ZM9.33338 23.25C8.87189 23.25 8.42076 23.382 8.03705 23.6292C7.65333 23.8764 7.35426 24.2278 7.17766 24.639C7.00105 25.0501 6.95485 25.5025 7.04488 25.939C7.13491 26.3754 7.35714 26.7763 7.68346 27.091C8.00978 27.4057 8.42554 27.62 8.87817 27.7068C9.33079 27.7936 9.79994 27.749 10.2263 27.5787C10.6527 27.4084 11.0171 27.12 11.2735 26.75C11.5299 26.38 11.6667 25.945 11.6667 25.5C11.6667 24.9033 11.4209 24.331 10.9833 23.909C10.5457 23.4871 9.95222 23.25 9.33338 23.25Z" fill="white"/>
<path d="M9.33338 48.75C7.94891 48.75 6.59553 48.3541 5.44439 47.6124C4.29324 46.8707 3.39603 45.8165 2.86622 44.5831C2.33641 43.3497 2.19778 41.9925 2.46788 40.6831C2.73798 39.3738 3.40466 38.171 4.38363 37.227C5.3626 36.283 6.60988 35.6402 7.96775 35.3797C9.32561 35.1193 10.7331 35.2529 12.0122 35.7638C13.2912 36.2747 14.3845 37.1399 15.1537 38.2499C15.9228 39.3599 16.3334 40.665 16.3334 42C16.3334 43.7902 15.5959 45.5071 14.2831 46.773C12.9704 48.0388 11.1899 48.75 9.33338 48.75ZM9.33338 39.75C8.87189 39.75 8.42076 39.882 8.03705 40.1292C7.65333 40.3764 7.35426 40.7278 7.17766 41.139C7.00105 41.5501 6.95485 42.0025 7.04488 42.439C7.13491 42.8754 7.35714 43.2763 7.68346 43.591C8.00978 43.9057 8.42554 44.12 8.87817 44.2068C9.33079 44.2936 9.79994 44.249 10.2263 44.0787C10.6527 43.9084 11.0171 43.62 11.2735 43.25C11.5299 42.88 11.6667 42.445 11.6667 42C11.6667 41.4033 11.4209 40.831 10.9833 40.409C10.5457 39.9871 9.95222 39.75 9.33338 39.75Z" fill="white"/>
<path d="M51.3333 11.25H23.3333C22.7145 11.25 22.121 11.0129 21.6834 10.591C21.2458 10.169 21 9.59674 21 9C21 8.40326 21.2458 7.83097 21.6834 7.40901C22.121 6.98705 22.7145 6.75 23.3333 6.75H51.3333C51.9522 6.75 52.5457 6.98705 52.9833 7.40901C53.4208 7.83097 53.6667 8.40326 53.6667 9C53.6667 9.59674 53.4208 10.169 52.9833 10.591C52.5457 11.0129 51.9522 11.25 51.3333 11.25Z" fill="white"/>
<path d="M51.3333 27.75H23.3333C22.7145 27.75 22.121 27.5129 21.6834 27.091C21.2458 26.669 21 26.0967 21 25.5C21 24.9033 21.2458 24.331 21.6834 23.909C22.121 23.4871 22.7145 23.25 23.3333 23.25H51.3333C51.9522 23.25 52.5457 23.4871 52.9833 23.909C53.4208 24.331 53.6667 24.9033 53.6667 25.5C53.6667 26.0967 53.4208 26.669 52.9833 27.091C52.5457 27.5129 51.9522 27.75 51.3333 27.75Z" fill="white"/>
<path d="M51.3333 44.25H23.3333C22.7145 44.25 22.121 44.0129 21.6834 43.591C21.2458 43.169 21 42.5967 21 42C21 41.4033 21.2458 40.831 21.6834 40.409C22.121 39.9871 22.7145 39.75 23.3333 39.75H51.3333C51.9522 39.75 52.5457 39.9871 52.9833 40.409C53.4208 40.831 53.6667 41.4033 53.6667 42C53.6667 42.5967 53.4208 43.169 52.9833 43.591C52.5457 44.0129 51.9522 44.25 51.3333 44.25Z" fill="white"/>
</svg>
