<svg width="55" height="55" viewBox="0 0 55 55" fill="none" xmlns="http://www.w3.org/2000/svg">
<path d="M5.82668 18.9344H16.6801C17.2779 18.9344 17.8513 18.697 18.274 18.2742C18.6967 17.8515 18.9342 17.2782 18.9342 16.6803C18.9342 16.0825 18.6967 15.5092 18.274 15.0865C17.8513 14.6637 17.2779 14.4262 16.6801 14.4262H9.67885C11.9409 11.2759 14.9381 8.72564 18.4099 6.99717C21.8818 5.26869 25.7233 4.41428 29.6004 4.50821C34.075 4.50841 38.4524 5.81363 42.1964 8.26399C45.9404 10.7144 48.8884 14.2035 50.6795 18.304C50.9208 18.8493 51.3682 19.2768 51.9239 19.4929C52.4796 19.7091 53.0983 19.6963 53.6446 19.4574C54.191 19.2185 54.6204 18.7729 54.8389 18.2181C55.0575 17.6633 55.0473 17.0445 54.8108 16.4972C52.6683 11.5935 49.1423 7.42102 44.6645 4.49086C40.1868 1.56069 34.9517 3.05816e-05 29.6004 1.26965e-05C24.5104 -0.131355 19.4814 1.13265 15.0584 3.6551C10.6353 6.17754 6.98681 9.86225 4.50814 14.31V2.25411C4.50814 1.65629 4.27066 1.08295 3.84794 0.660223C3.42522 0.237497 2.85189 1.26965e-05 2.25407 1.26965e-05C1.65625 1.26965e-05 1.08292 0.237497 0.660202 0.660223C0.237482 1.08295 0 1.65629 0 2.25411L0 16.6803C0.000406016 17.278 0.238018 17.8511 0.66065 18.2738C1.08328 18.6964 1.65638 18.934 2.25407 18.9344H5.82668Z" fill="white"/>
<path d="M52.7452 36.0656H38.3192C37.7214 36.0656 37.148 36.3031 36.7253 36.7258C36.3026 37.1485 36.0651 37.7219 36.0651 38.3197C36.0651 38.9175 36.3026 39.4909 36.7253 39.9136C37.148 40.3363 37.7214 40.5738 38.3192 40.5738H45.4414C43.6362 43.703 41.0114 46.2802 37.8498 48.0279C34.6882 49.7756 31.1096 50.6275 27.4996 50.4918C23.0251 50.4916 18.6477 49.1864 14.9037 46.7361C11.1597 44.2857 8.21164 40.7966 6.42058 36.6961C6.18036 36.1491 5.73293 35.7199 5.17652 35.5026C4.62011 35.2853 4.00021 35.2977 3.45293 35.5371C2.90565 35.7764 2.47573 36.2232 2.25756 36.7793C2.03939 37.3354 2.05082 37.9553 2.28932 38.5029C4.43177 43.4066 7.95781 47.5791 12.4356 50.5092C16.9133 53.4394 22.1484 55 27.4996 55C32.3086 55.133 37.0507 53.8512 41.1378 51.3137C45.2249 48.7762 48.4772 45.0946 50.4912 40.7257V52.7459C50.4912 53.3438 50.7286 53.9171 51.1514 54.3398C51.5741 54.7626 52.1474 55 52.7452 55C53.343 55 53.9164 54.7626 54.3391 54.3398C54.7618 53.9171 54.9993 53.3438 54.9993 52.7459V38.3197C54.9992 37.7219 54.7617 37.1486 54.339 36.7259C53.9163 36.3032 53.343 36.0657 52.7452 36.0656Z" fill="white"/>
</svg>
